<?xml version="1.0" encoding="utf-8"?>
<!-- Generator: Adobe Illustrator 16.0.0, SVG Export Plug-In . SVG Version: 6.00 Build 0)  -->
<!DOCTYPE svg PUBLIC "-//W3C//DTD SVG 1.1//EN" "http://www.w3.org/Graphics/SVG/1.1/DTD/svg11.dtd">
<svg version="1.1" id="Layer_1" xmlns="http://www.w3.org/2000/svg" xmlns:xlink="http://www.w3.org/1999/xlink" x="0px" y="0px"
	 width="78.451px" height="69.297px" viewBox="0 0 78.451 69.297" enable-background="new 0 0 78.451 69.297" xml:space="preserve">
<g>
	<g>
		<defs>
			<rect id="SVGID_1_" width="78.451" height="69.297"/>
		</defs>
		<clipPath id="SVGID_2_">
			<use xlink:href="#SVGID_1_"  overflow="visible"/>
		</clipPath>
		<path clip-path="url(#SVGID_2_)" d="M66.649,21.174C65.961,9.406,56.263,0,44.565,0C37.465,0,30.59,3.482,26.33,9.163
			c-0.098-0.051-0.202-0.086-0.302-0.134c-0.256-0.125-0.515-0.242-0.78-0.348c-0.155-0.062-0.312-0.117-0.468-0.172
			c-0.258-0.09-0.52-0.17-0.785-0.241c-0.157-0.042-0.312-0.085-0.471-0.122c-0.287-0.065-0.58-0.115-0.876-0.158
			c-0.137-0.021-0.273-0.047-0.412-0.063c-0.432-0.05-0.87-0.08-1.316-0.08c-6.488,0-11.768,5.279-11.768,11.768
			c0,0.168,0.011,0.333,0.021,0.498C3.735,23.075,0,29.287,0,35.504c0,9.261,7.533,16.797,16.795,16.797h6.74
			c0.722,0,1.307-0.586,1.307-1.309c0-0.724-0.585-1.308-1.307-1.308h-6.74c-7.819,0-14.18-6.36-14.18-14.183
			c0-5.43,3.536-11.068,8.41-13.405l0.742-0.354V20.92c0-0.16,0.011-0.325,0.02-0.49l0.012-0.226l-0.016-0.264
			c-0.008-0.109-0.016-0.217-0.016-0.327c0-5.046,4.106-9.153,9.153-9.153c0.404,0,0.803,0.036,1.199,0.088
			c0.102,0.013,0.204,0.03,0.306,0.047c0.349,0.057,0.693,0.133,1.031,0.23c0.046,0.013,0.093,0.022,0.139,0.035
			c0.373,0.114,0.736,0.259,1.092,0.42c0.091,0.042,0.181,0.086,0.272,0.131c0.315,0.155,0.623,0.327,0.921,0.52
			c2.519,1.633,4.192,4.464,4.192,7.682c0,0.723,0.586,1.307,1.308,1.307c0.722,0,1.307-0.584,1.307-1.307
			c0-3.601-1.629-6.824-4.184-8.984c3.748-4.903,9.922-8.014,16.063-8.014c10.125,0,18.537,8.022,19.414,18.158
			c-1.338-0.095-3.338-0.143-5.34,0.163c-0.714,0.109-1.203,0.775-1.097,1.489c0.101,0.648,0.656,1.112,1.291,1.112
			c0.065,0,0.133-0.006,0.199-0.016c2.907-0.439,5.94-0.027,6.124-0.003c6.088,1.158,10.677,6.765,10.677,13.057
			c0,7.229-5.882,13.111-13.11,13.111H57.53c-0.723,0-1.307,0.584-1.307,1.307c0,0.725,0.584,1.309,1.307,1.309h5.193
			c8.672,0,15.727-7.057,15.727-15.727C78.45,29.397,73.446,22.96,66.649,21.174"/>
	</g>
	<g>
		<defs>
			<rect id="SVGID_3_" width="78.451" height="69.297"/>
		</defs>
		<clipPath id="SVGID_4_">
			<use xlink:href="#SVGID_3_"  overflow="visible"/>
		</clipPath>
		<path clip-path="url(#SVGID_4_)" d="M50.067,40.15c0.256,0.255,0.591,0.384,0.925,0.384c0.335,0,0.67-0.129,0.926-0.384
			c0.511-0.511,0.511-1.338,0-1.849L41.459,27.842c-0.12-0.121-0.267-0.217-0.427-0.283c-0.318-0.132-0.68-0.132-0.999,0
			c-0.161,0.066-0.306,0.162-0.426,0.283L29.148,38.301c-0.511,0.511-0.511,1.338,0,1.849c0.255,0.255,0.59,0.384,0.924,0.384
			c0.335,0,0.67-0.129,0.925-0.384l8.228-8.228v32.913l-8.228-8.229c-0.512-0.512-1.338-0.512-1.849,0
			c-0.511,0.512-0.511,1.338,0,1.85l10.459,10.459c0.121,0.121,0.265,0.217,0.426,0.283c0.159,0.065,0.329,0.102,0.499,0.102
			s0.34-0.035,0.5-0.102s0.305-0.162,0.427-0.283l10.459-10.459c0.511-0.512,0.511-1.338,0-1.85c-0.513-0.512-1.339-0.512-1.851,0
			l-8.228,8.229V31.922L50.067,40.15z"/>
	</g>
</g>
</svg>
