<?xml version="1.0" encoding="utf-8"?>
<!-- Generator: Adobe Illustrator 16.0.0, SVG Export Plug-In . SVG Version: 6.00 Build 0)  -->
<!DOCTYPE svg PUBLIC "-//W3C//DTD SVG 1.1//EN" "http://www.w3.org/Graphics/SVG/1.1/DTD/svg11.dtd">
<svg version="1.1" id="Layer_1" xmlns="http://www.w3.org/2000/svg" xmlns:xlink="http://www.w3.org/1999/xlink" x="0px" y="0px"
	 width="65.354px" height="78.396px" viewBox="0 0 65.354 78.396" enable-background="new 0 0 65.354 78.396" xml:space="preserve">
<g>
	<defs>
		<rect id="SVGID_1_" y="0" width="65.354" height="78.395"/>
	</defs>
	<clipPath id="SVGID_2_">
		<use xlink:href="#SVGID_1_"  overflow="visible"/>
	</clipPath>
	<path clip-path="url(#SVGID_2_)" fill="#00C0F3" d="M32.737,16.898c-11.096,0-20.161,9.065-20.161,20.161
		c0,5.801,2.538,11.385,6.817,15.157c3.191,3.19,2.901,10.007,2.828,10.08c0,0.363,0.073,0.653,0.363,0.943
		c0.217,0.217,0.58,0.361,0.87,0.361h18.493c0.362,0,0.652-0.145,0.87-0.361c0.218-0.219,0.362-0.58,0.362-0.943
		c0-0.073-0.362-6.89,2.828-10.08c0.073-0.073,0.146-0.145,0.219-0.218c4.205-3.845,6.672-9.283,6.672-14.939
		C52.898,25.963,43.832,16.898,32.737,16.898 M44.34,50.33c-0.072,0.072-0.218,0.218-0.218,0.29
		c-2.828,3.046-3.336,8.05-3.408,10.442H24.687c-0.073-2.393-0.58-7.614-3.626-10.732c-3.844-3.336-6.092-8.195-6.092-13.344
		c0-9.79,7.905-17.695,17.695-17.695s17.695,7.905,17.695,17.695C50.359,42.135,48.185,46.994,44.34,50.33"/>
	<path clip-path="url(#SVGID_2_)" fill="#00C0F3" d="M32.664,22.046c-0.653,0-1.233,0.58-1.233,1.233
		c0,0.653,0.58,1.233,1.233,1.233c7.325,0,13.199,5.946,13.199,13.199c0,0.652,0.58,1.232,1.233,1.232
		c0.651,0,1.232-0.58,1.232-1.232C48.401,29.082,41.367,22.046,32.664,22.046"/>
	<path clip-path="url(#SVGID_2_)" fill="#00C0F3" d="M40.714,64.979h-16.1c-1.668,0-3.046,1.378-3.046,3.046
		s1.378,3.046,3.046,3.046h16.026c1.741-0.071,3.119-1.378,3.119-3.046S42.382,64.979,40.714,64.979 M40.714,68.532h-16.1
		c-0.29,0-0.58-0.218-0.58-0.58s0.218-0.579,0.58-0.579h16.026c0.291,0,0.581,0.217,0.581,0.579S41.004,68.532,40.714,68.532"/>
	<path clip-path="url(#SVGID_2_)" fill="#00C0F3" d="M38.32,72.304H27.008c-1.668,0-3.046,1.378-3.046,3.046
		s1.378,3.046,3.046,3.046H38.32c1.669,0,3.047-1.378,3.047-3.046C41.367,73.609,39.989,72.304,38.32,72.304 M38.32,75.857H27.008
		c-0.29,0-0.58-0.218-0.58-0.58c0-0.363,0.217-0.58,0.58-0.58H38.32c0.29,0,0.58,0.217,0.58,0.58
		C38.9,75.64,38.61,75.857,38.32,75.857"/>
	<path clip-path="url(#SVGID_2_)" fill="#00C0F3" d="M32.664,10.878c0.726,0,1.233-0.58,1.233-1.233V1.233
		C33.897,0.58,33.317,0,32.664,0s-1.233,0.58-1.233,1.233v8.412C31.431,10.298,32.011,10.878,32.664,10.878"/>
	<path clip-path="url(#SVGID_2_)" fill="#00C0F3" d="M53.188,6.237c-0.58-0.435-1.305-0.218-1.668,0.29l-4.641,6.962
		c-0.436,0.58-0.29,1.378,0.29,1.741c0.217,0.145,0.435,0.217,0.651,0.217c0.437,0,0.799-0.217,1.017-0.58l4.641-6.962
		C53.913,7.397,53.768,6.6,53.188,6.237"/>
	<path clip-path="url(#SVGID_2_)" fill="#00C0F3" d="M17.942,15.157c0.218,0,0.435-0.073,0.653-0.218
		c0.58-0.362,0.725-1.16,0.362-1.74l-4.496-7.035c-0.363-0.58-1.16-0.725-1.741-0.362c-0.58,0.362-0.725,1.16-0.362,1.74
		l4.496,7.035C17.145,15.012,17.507,15.157,17.942,15.157"/>
	<path clip-path="url(#SVGID_2_)" fill="#00C0F3" d="M9.167,22.844l-7.325-3.989c-0.58-0.29-1.378-0.072-1.668,0.508
		c-0.362,0.58-0.145,1.378,0.508,1.668l7.325,3.989c0.217,0.072,0.362,0.145,0.58,0.145c0.435,0,0.87-0.218,1.088-0.653
		C9.965,23.932,9.747,23.134,9.167,22.844"/>
	<path clip-path="url(#SVGID_2_)" fill="#00C0F3" d="M65.227,19.363c-0.29-0.58-1.088-0.798-1.668-0.508l-7.397,3.989
		c-0.58,0.29-0.798,1.088-0.508,1.668c0.218,0.435,0.653,0.653,1.088,0.653c0.218,0,0.435-0.073,0.58-0.145l7.396-3.989
		C65.299,20.741,65.517,19.943,65.227,19.363"/>
</g>
</svg>
