<?xml version="1.0" encoding="utf-8"?>
<!-- Generator: Adobe Illustrator 16.0.0, SVG Export Plug-In . SVG Version: 6.00 Build 0)  -->
<!DOCTYPE svg PUBLIC "-//W3C//DTD SVG 1.1//EN" "http://www.w3.org/Graphics/SVG/1.1/DTD/svg11.dtd">
<svg version="1.1" id="Layer_1" xmlns="http://www.w3.org/2000/svg" xmlns:xlink="http://www.w3.org/1999/xlink" x="0px" y="0px"
	 width="52.667px" height="71.59px" viewBox="0 0 52.667 71.59" enable-background="new 0 0 52.667 71.59" xml:space="preserve">
<g>
	<defs>
		<rect id="SVGID_1_" y="0" width="52.667" height="71.59"/>
	</defs>
	<clipPath id="SVGID_2_">
		<use xlink:href="#SVGID_1_"  overflow="visible"/>
	</clipPath>
	<path clip-path="url(#SVGID_2_)" fill="none" stroke="#00C0F3" stroke-width="2" stroke-miterlimit="10" d="M45.397,26.883v-7.076
		C45.397,9.438,36.96,1,26.59,1C16.218,1,7.781,9.438,7.781,19.808v7.041C4.01,27.01,1,30.108,1,33.919v29.584
		c0,3.914,3.173,7.087,7.087,7.087h36.492c3.914,0,7.087-3.173,7.087-7.087V33.919C51.666,30.283,48.926,27.29,45.397,26.883z
		 M26.59,8.433c6.271,0,11.375,5.103,11.375,11.375v7.025h-22.75v-7.025C15.214,13.536,20.317,8.433,26.59,8.433z"/>
	<path clip-path="url(#SVGID_2_)" fill="#00C0F3" d="M30.172,42.442c0-1.837-1.489-3.327-3.327-3.327
		c-1.837,0-3.326,1.49-3.326,3.327c0,1.479,0.97,2.716,2.303,3.149v13.228h2.303V45.512C29.327,45.011,30.172,43.826,30.172,42.442"
		/>
</g>
</svg>
