<?xml version="1.0" encoding="utf-8"?>
<!-- Generator: Adobe Illustrator 16.0.0, SVG Export Plug-In . SVG Version: 6.00 Build 0)  -->
<!DOCTYPE svg PUBLIC "-//W3C//DTD SVG 1.1//EN" "http://www.w3.org/Graphics/SVG/1.1/DTD/svg11.dtd">
<svg version="1.1" id="Layer_1" xmlns="http://www.w3.org/2000/svg" xmlns:xlink="http://www.w3.org/1999/xlink" x="0px" y="0px"
	 width="155.797px" height="33.278px" viewBox="0 0 155.797 33.278" enable-background="new 0 0 155.797 33.278"
	 xml:space="preserve">
<g>
	<defs>
		<rect id="SVGID_1_" width="155.797" height="33.278"/>
	</defs>
	<clipPath id="SVGID_2_">
		<use xlink:href="#SVGID_1_"  overflow="visible"/>
	</clipPath>
	<path clip-path="url(#SVGID_2_)" fill="#00C0F3" d="M104.528,33.028H72.631c-2.644,0-4.794-2.15-4.794-4.794V8.79
		c0-2.644,2.15-4.794,4.794-4.794h6.509l0.569-1.922c0.233-1.052,1.194-1.824,2.325-1.824h13.092c1.099,0,2.071,0.768,2.328,1.833
		l0.015,0.066l0.521,1.847h6.539c2.644,0,4.795,2.15,4.795,4.794v19.444C109.322,30.877,107.171,33.028,104.528,33.028
		 M72.631,5.593c-1.763,0-3.196,1.433-3.196,3.196v19.444c0,1.763,1.433,3.195,3.196,3.195h31.897c1.762,0,3.195-1.433,3.195-3.195
		V8.79c0-1.763-1.434-3.196-3.195-3.196h-7.75l-0.875-3.12c-0.08-0.363-0.407-0.626-0.778-0.626H82.033
		c-0.376,0-0.696,0.257-0.778,0.626l-0.924,3.12H72.631z M88.581,28.198c-5.593,0-10.144-4.55-10.144-10.142
		c0-5.593,4.551-10.142,10.144-10.142c5.591,0,10.14,4.55,10.14,10.142C98.721,23.647,94.172,28.198,88.581,28.198 M88.581,9.512
		c-4.712,0-8.545,3.832-8.545,8.543c0,4.712,3.833,8.543,8.545,8.543c4.71,0,8.542-3.832,8.542-8.543S93.29,9.512,88.581,9.512
		 M103.496,8.56c-0.815,0-1.475,0.661-1.475,1.474c0,0.815,0.659,1.475,1.475,1.475c0.813,0,1.473-0.661,1.473-1.475
		C104.969,9.22,104.309,8.56,103.496,8.56"/>
	<path clip-path="url(#SVGID_2_)" fill="none" stroke="#00C0F3" stroke-width="0.5" stroke-miterlimit="10" d="M104.528,33.028
		H72.631c-2.644,0-4.794-2.15-4.794-4.794V8.79c0-2.644,2.15-4.794,4.794-4.794h6.509l0.569-1.922
		c0.233-1.052,1.194-1.824,2.325-1.824h13.092c1.099,0,2.071,0.768,2.328,1.833l0.015,0.066l0.521,1.847h6.539
		c2.644,0,4.795,2.15,4.795,4.794v19.444C109.322,30.877,107.171,33.028,104.528,33.028z M72.631,5.593
		c-1.763,0-3.196,1.433-3.196,3.196v19.444c0,1.763,1.433,3.195,3.196,3.195h31.897c1.762,0,3.195-1.433,3.195-3.195V8.79
		c0-1.763-1.434-3.196-3.195-3.196h-7.75l-0.875-3.12c-0.08-0.363-0.407-0.626-0.778-0.626H82.033c-0.376,0-0.696,0.257-0.778,0.626
		l-0.924,3.12H72.631z M88.581,28.198c-5.593,0-10.144-4.55-10.144-10.142c0-5.593,4.551-10.142,10.144-10.142
		c5.591,0,10.14,4.55,10.14,10.142C98.721,23.647,94.172,28.198,88.581,28.198z M88.581,9.512c-4.712,0-8.545,3.832-8.545,8.543
		c0,4.712,3.833,8.543,8.545,8.543c4.71,0,8.542-3.832,8.542-8.543S93.29,9.512,88.581,9.512z M103.496,8.56
		c-0.815,0-1.475,0.661-1.475,1.474c0,0.815,0.659,1.475,1.475,1.475c0.813,0,1.473-0.661,1.473-1.475
		C104.969,9.22,104.309,8.56,103.496,8.56z"/>
	<path clip-path="url(#SVGID_2_)" fill="#00C0F3" d="M155.798,16.788c0-4.415-1.72-8.567-4.839-11.686
		c-3.119-3.12-7.272-4.839-11.687-4.839s-8.566,1.719-11.686,4.839c-3.119,3.119-4.839,7.271-4.839,11.686v7.823
		c0,4.421,3.602,8.022,8.022,8.022c0.53,0,0.955-0.426,0.955-0.955V17.551c0-0.53-0.425-0.955-0.955-0.955
		c-2.448,0-4.641,1.096-6.112,2.83v-2.639c0-8.057,6.558-14.615,14.614-14.615s14.615,6.558,14.615,14.615
		c0,0.063,0.007,0.127,0.021,0.191c-0.014,0.063-0.021,0.127-0.021,0.191v2.638c-1.473-1.733-3.665-2.829-6.112-2.829
		c-0.531,0-0.955,0.424-0.955,0.954V32.06c0,0.529,0.424,0.955,0.955,0.955c4.421,0,8.022-3.602,8.022-8.022V17.17
		c0-0.064-0.008-0.128-0.022-0.191C155.79,16.915,155.798,16.851,155.798,16.788 M129.809,18.577v12.068
		c-2.915-0.46-5.157-2.992-5.157-6.034C124.658,21.569,126.894,19.037,129.809,18.577 M148.737,31.027V18.958
		c2.914,0.46,5.157,2.992,5.157,6.034C153.888,28.042,151.651,30.567,148.737,31.027"/>
	<path clip-path="url(#SVGID_2_)" fill="#00C0F3" d="M33.802,32.648H3.937c-2.032,0-3.687-1.652-3.687-3.686V4.314
		c0-2.031,1.655-3.685,3.687-3.685h29.865c2.033,0,3.686,1.654,3.686,3.686v24.649C37.488,30.996,35.834,32.648,33.802,32.648
		 M3.937,1.902c-1.33,0-2.414,1.082-2.414,2.412v24.648c0,1.33,1.084,2.413,2.414,2.413h29.865c1.33,0,2.413-1.081,2.413-2.413
		V4.314c0-1.33-1.083-2.413-2.413-2.413L3.937,1.902L3.937,1.902z"/>
	<path clip-path="url(#SVGID_2_)" fill="none" stroke="#00C0F3" stroke-width="0.5" stroke-miterlimit="10" d="M33.802,32.648H3.937
		c-2.032,0-3.687-1.652-3.687-3.686V4.314c0-2.031,1.655-3.685,3.687-3.685h29.865c2.033,0,3.686,1.654,3.686,3.686v24.649
		C37.488,30.996,35.834,32.648,33.802,32.648z M3.937,1.902c-1.33,0-2.414,1.082-2.414,2.412v24.648c0,1.33,1.084,2.413,2.414,2.413
		h29.865c1.33,0,2.413-1.081,2.413-2.413V4.314c0-1.33-1.083-2.413-2.413-2.413L3.937,1.902L3.937,1.902z"/>
	<path clip-path="url(#SVGID_2_)" fill="#00C0F3" d="M52.758,29.174c-0.135,0-0.269-0.043-0.382-0.127L36.47,17.143
		c-0.161-0.121-0.255-0.309-0.255-0.509c0-0.2,0.094-0.39,0.255-0.509L52.372,4.228c0.195-0.143,0.452-0.168,0.666-0.059
		c0.216,0.108,0.351,0.328,0.351,0.568l0.005,23.801c0,0.24-0.135,0.46-0.351,0.568C52.952,29.152,52.854,29.174,52.758,29.174
		 M37.914,16.635l14.207,10.631L52.117,6.009L37.914,16.635z"/>
	<path clip-path="url(#SVGID_2_)" fill="none" stroke="#00C0F3" stroke-width="0.5" stroke-miterlimit="10" d="M52.758,29.174
		c-0.135,0-0.269-0.043-0.382-0.127L36.47,17.143c-0.161-0.121-0.255-0.309-0.255-0.509c0-0.2,0.094-0.39,0.255-0.509L52.372,4.228
		c0.195-0.143,0.452-0.168,0.666-0.059c0.216,0.108,0.351,0.328,0.351,0.568l0.005,23.801c0,0.24-0.135,0.46-0.351,0.568
		C52.952,29.152,52.854,29.174,52.758,29.174z M37.914,16.635l14.207,10.631L52.117,6.009L37.914,16.635z"/>
</g>
</svg>
